<svg width="40" height="40" viewBox="0 0 40 40" fill="none" xmlns="http://www.w3.org/2000/svg">
<path d="M20 10C19.4696 10 18.9609 10.2107 18.5858 10.5858C18.2107 10.9609 18 11.4696 18 12V20C18 20.5304 18.2107 21.0391 18.5858 21.4142C18.9609 21.7893 19.4696 22 20 22C20.5304 22 21.0391 21.7893 21.4142 21.4142C21.7893 21.0391 22 20.5304 22 20V12C22 11.4696 21.7893 10.9609 21.4142 10.5858C21.0391 10.2107 20.5304 10 20 10ZM20 26C19.6044 26 19.2178 26.1173 18.8889 26.3371C18.56 26.5568 18.3036 26.8692 18.1522 27.2346C18.0009 27.6001 17.9613 28.0022 18.0384 28.3902C18.1156 28.7781 18.3061 29.1345 18.5858 29.4142C18.8655 29.6939 19.2219 29.8844 19.6098 29.9616C19.9978 30.0387 20.3999 29.9991 20.7654 29.8478C21.1308 29.6964 21.4432 29.44 21.6629 29.1111C21.8827 28.7822 22 28.3956 22 28C22 27.4696 21.7893 26.9609 21.4142 26.5858C21.0391 26.2107 20.5304 26 20 26ZM39.42 11.12L28.88 0.58C28.4967 0.214532 27.9895 0.00736698 27.46 0H12.54C12.0105 0.00736698 11.5033 0.214532 11.12 0.58L0.58 11.12C0.214532 11.5033 0.00736698 12.0105 0 12.54V27.46C0.00736698 27.9895 0.214532 28.4967 0.58 28.88L11.12 39.42C11.5033 39.7855 12.0105 39.9926 12.54 40H27.46C27.9895 39.9926 28.4967 39.7855 28.88 39.42L39.42 28.88C39.7855 28.4967 39.9926 27.9895 40 27.46V12.54C39.9926 12.0105 39.7855 11.5033 39.42 11.12ZM36 26.62L26.62 36H13.38L4 26.62V13.38L13.38 4H26.62L36 13.38V26.62Z" fill="currentColor"/>
</svg>
