<svg width="43" height="37" viewBox="0 0 43 37" fill="none" xmlns="http://www.w3.org/2000/svg">
<path d="M21.1591 25.7925C20.78 25.7925 20.4094 25.9 20.0942 26.1015C19.779 26.3029 19.5334 26.5892 19.3883 26.9242C19.2432 27.2592 19.2053 27.6279 19.2792 27.9835C19.3532 28.3391 19.5357 28.6658 19.8038 28.9222C20.0718 29.1786 20.4134 29.3532 20.7852 29.4239C21.157 29.4947 21.5423 29.4584 21.8926 29.3196C22.2428 29.1808 22.5421 28.9459 22.7527 28.6444C22.9633 28.3429 23.0757 27.9884 23.0757 27.6258C23.0757 27.1396 22.8738 26.6733 22.5144 26.3295C22.1549 25.9856 21.6674 25.7925 21.1591 25.7925ZM41.6099 28.4875L26.1807 2.82082C25.682 1.9656 24.9537 1.25325 24.0709 0.757349C23.1881 0.261453 22.1829 0 21.1591 0C20.1353 0 19.1301 0.261453 18.2473 0.757349C17.3645 1.25325 16.6361 1.9656 16.1374 2.82082L0.804077 28.4875C0.288102 29.3199 0.0108501 30.2677 0.000312035 31.2353C-0.010226 32.203 0.246323 33.1561 0.744058 33.9986C1.24179 34.841 1.96309 35.543 2.83514 36.0335C3.70718 36.5241 4.6991 36.7859 5.71074 36.7925H36.6074C37.6272 36.8021 38.6313 36.5521 39.5167 36.0682C40.4022 35.5842 41.1372 34.8837 41.6463 34.0385C42.1554 33.1933 42.4204 32.2337 42.414 31.2583C42.4076 30.2828 42.1301 29.3265 41.6099 28.4875ZM38.2941 32.1542C38.1261 32.4401 37.881 32.6776 37.5843 32.8421C37.2876 33.0065 36.9503 33.0919 36.6074 33.0892H5.71074C5.36787 33.0919 5.03052 33.0065 4.73385 32.8421C4.43719 32.6776 4.19208 32.4401 4.02408 32.1542C3.85585 31.8755 3.76729 31.5593 3.76729 31.2375C3.76729 30.9157 3.85585 30.5995 4.02408 30.3208L19.3574 4.65416C19.5183 4.35385 19.7626 4.10183 20.0636 3.92585C20.3646 3.74987 20.7105 3.65675 21.0632 3.65675C21.416 3.65675 21.7619 3.74987 22.0629 3.92585C22.3639 4.10183 22.6082 4.35385 22.7691 4.65416L38.1982 30.3208C38.3884 30.5955 38.4977 30.9142 38.5145 31.2432C38.5314 31.5723 38.4552 31.8996 38.2941 32.1908V32.1542ZM21.1591 11.1258C20.6507 11.1258 20.1632 11.319 19.8038 11.6628C19.4443 12.0066 19.2424 12.4729 19.2424 12.9592V20.2925C19.2424 20.7787 19.4443 21.245 19.8038 21.5889C20.1632 21.9327 20.6507 22.1258 21.1591 22.1258C21.6674 22.1258 22.1549 21.9327 22.5144 21.5889C22.8738 21.245 23.0757 20.7787 23.0757 20.2925V12.9592C23.0757 12.4729 22.8738 12.0066 22.5144 11.6628C22.1549 11.319 21.6674 11.1258 21.1591 11.1258Z" fill="currentColor"/>
</svg>
